<svg width="50" height="50" viewBox="0 0 50 50" fill="none" xmlns="http://www.w3.org/2000/svg">
<path d="M47.7482 37.5193H47.7482V10.8871V10.8801L47.7483 10.8801C47.8112 8.62686 46.0355 6.74933 43.7822 6.68652L43.7822 6.68651C43.6887 6.68388 43.595 6.68451 43.5014 6.68831L43.4912 6.68872V6.68852H33.9504H33.7004V6.43852V4.62412V4.61762L33.7005 4.61762C33.7616 2.26739 31.9059 0.312603 29.5557 0.251488L47.7482 37.5193ZM47.7482 37.5193L47.7483 37.5256L47.7482 37.5193ZM18.5564 0.25H18.5563C16.2053 0.249154 14.2987 2.1544 14.2979 4.50547L18.5564 0.25ZM18.5564 0.25H29.4435C29.4806 0.25 29.5179 0.250526 29.5556 0.251484L18.5564 0.25ZM14.2996 4.62401H14.2995V6.43852V6.68852H14.0495H4.50874H4.49851L4.49852 6.68831C2.24623 6.59615 0.34571 8.34707 0.2534 10.5992L14.2996 4.62401ZM14.2996 4.62401L14.2994 4.61691M14.2996 4.62401L14.2994 4.61691M14.2994 4.61691C14.2984 4.58032 14.2979 4.54321 14.2979 4.50555L14.2994 4.61691ZM0.251801 10.8871H0.251702V37.5193V37.5258L0.251617 37.5258C0.19056 39.876 2.04627 41.8308 4.39647 41.8919C4.39651 41.8919 4.39655 41.8919 4.39659 41.8919L4.3901 42.1418L0.251801 10.8871ZM0.251801 10.8871L0.251602 10.88M0.251801 10.8871L0.251602 10.88M0.251602 10.88C0.248966 10.7865 0.249595 10.6929 0.253397 10.5993L0.251602 10.88ZM18.4227 2.09491L18.4229 2.0949C18.467 2.09256 18.5117 2.09129 18.5568 2.09141M18.4227 2.09491L31.6124 4.5039C31.6106 3.30782 30.6396 2.33962 29.4435 2.34141V2.09141H29.4433C29.4432 2.09141 29.4432 2.09141 29.4431 2.09141L18.5568 2.09141M18.4227 2.09491C17.0928 2.1669 16.0726 3.30154 16.1408 4.63072V6.43863V6.68863H16.3908H31.6093H31.8593V6.43863V4.63061L18.4227 2.09491ZM18.5568 2.09141H18.5564V2.34141L18.5571 2.09141C18.557 2.09141 18.5569 2.09141 18.5568 2.09141ZM43.625 40.0486L43.6248 40.0486C43.5806 40.0509 43.5358 40.0522 43.4906 40.0521M43.625 40.0486L4.50912 40.0521M43.625 40.0486C44.9549 39.9766 45.9752 38.8419 45.9071 37.5128V29.8516V29.3899L45.5204 29.6423C44.9227 30.0324 44.2168 30.2232 43.5039 30.1873L43.5039 30.187H43.4913H31.6093H31.3593V30.437V33.8119L43.625 40.0486ZM43.4906 40.0521L43.4913 39.8021V40.0521H43.4906ZM43.4906 40.0521H4.50912M4.50912 40.0521L4.50874 39.8022V40.0521H4.50912ZM2.08987 37.6401C2.08987 37.6401 2.08986 37.64 2.08986 37.64L2.33986 37.6396L2.08987 37.6403C2.08987 37.6402 2.08987 37.6402 2.08987 37.6401ZM2.08987 37.6401C2.08975 37.5973 2.09088 37.5548 2.093 37.5129M2.08987 37.6401L2.093 37.5129M2.343 29.8516C2.42454 29.9048 2.50794 29.9546 2.593 30.0008V29.8516H2.343ZM2.343 29.8516L2.20638 30.061C2.2514 30.0904 2.29695 30.1188 2.343 30.1462V29.8516ZM2.093 37.5129V37.5194H2.343L2.09335 37.5061C2.09323 37.5084 2.09312 37.5106 2.093 37.5129ZM43.625 28.3421L43.6248 28.3421C43.5808 28.3444 43.5363 28.3457 43.4913 28.3456C43.4911 28.3456 43.4908 28.3456 43.4906 28.3456M43.625 28.3421L43.4913 28.0956L43.4906 28.3456M43.625 28.3421C44.9549 28.2701 45.9751 27.1355 45.9069 25.8062V10.8947M43.625 28.3421L45.9069 10.8947M43.4906 28.3456L31.6091 28.3456H31.3591V28.0956V25.5787C31.3591 25.37 31.2396 25.191 31.0162 25.0521C30.7904 24.9117 30.4863 24.8336 30.2043 24.8336H17.7956C17.5137 24.8336 17.2096 24.9117 16.9837 25.0521C16.7603 25.191 16.6408 25.37 16.6408 25.5787V28.0956V28.3456H16.3908L4.50912 28.3456M43.4906 28.3456H4.50912M4.50912 28.3456L4.50874 28.0958V28.3456M4.50912 28.3456L2.08986 25.9335C2.08986 25.9335 2.08987 25.9336 2.08987 25.9336C2.09194 27.2676 3.1748 28.3474 4.50874 28.3456M4.50912 28.3456C4.50899 28.3456 4.50887 28.3456 4.50874 28.3456M4.50912 28.3456L4.50874 28.3456M4.18829 8.52628L4.18831 8.52628C4.29859 8.51934 4.40943 8.52051 4.51972 8.52993H43.4803C44.7077 8.42504 45.7905 9.33156 45.9018 10.5598M4.18829 8.52628L45.9018 10.5598M4.18829 8.52628C2.95626 8.60392 2.01978 9.66343 2.093 10.8947V25.8064L4.18829 8.52628ZM45.9018 10.5598C45.9119 10.6712 45.9136 10.7832 45.9069 10.8947M45.9018 10.5598L45.9069 10.8947M16.6408 33.8119C16.6398 33.806 16.6388 33.8 16.6379 33.7939L16.3908 33.8319H16.6408V33.8119ZM17.8041 34.8696H17.7956V35.1196L17.8119 34.8701C17.8093 34.87 17.8067 34.8698 17.8041 34.8696ZM30.1959 34.8696C30.1933 34.8698 30.1907 34.87 30.1881 34.8701L30.2045 35.1196V34.8696H30.1959ZM18.4821 32.7782V33.0282H18.7321H29.268H29.518V32.7782V26.9249V26.6749H29.268H18.7321H18.4821V26.9249V32.7782Z" fill="#F78BB6" stroke="#F78BB6" stroke-width="0.5"/>
</svg>
