<svg width="41" height="41" viewBox="0 0 41 41" fill="none" xmlns="http://www.w3.org/2000/svg">
<circle cx="20.5" cy="20.5" r="20.5" fill="white"/>
<g clip-path="url(#clip0_1_620)">
<path d="M28.5391 10H12.4609C11.104 10 10 11.104 10 12.4609V28.5391C10 29.896 11.104 31 12.4609 31H28.5391C29.896 31 31 29.896 31 28.5391V12.4609C31 11.104 29.896 10 28.5391 10ZM29.3594 28.5391C29.3594 28.9914 28.9914 29.3594 28.5391 29.3594H23.8633V22.6738H26.3976L26.8164 20.1309H23.8633V18.3672C23.8633 17.6709 24.3975 17.1367 25.0938 17.1367H26.7754V14.5938H25.0938C23.0051 14.5938 21.3212 16.2856 21.3212 18.3743V20.1309H18.8594V22.6738H21.3212V29.3594H12.4609C12.0086 29.3594 11.6406 28.9914 11.6406 28.5391V12.4609C11.6406 12.0086 12.0086 11.6406 12.4609 11.6406H28.5391C28.9914 11.6406 29.3594 12.0086 29.3594 12.4609V28.5391Z" fill="#A7A7A7"/>
</g>
<defs>
<clipPath id="clip0_1_620">
<rect width="21" height="21" fill="white" transform="translate(10 10)"/>
</clipPath>
</defs>
</svg>
