<svg width="41" height="41" viewBox="0 0 41 41" fill="none" xmlns="http://www.w3.org/2000/svg">
<circle cx="20.5" cy="20.5" r="20.5" fill="white"/>
<g clip-path="url(#clip0_1_604)">
<path d="M25.0448 10H14.9552C11.6714 10 9 12.6714 9 15.9552V26.0449C9 29.3285 11.6714 32 14.9552 32H25.0449C28.3285 32 31 29.3285 31 26.0449V15.9552C31 12.6714 28.3285 10 25.0448 10V10ZM29.7102 26.0449C29.7102 28.6174 27.6174 30.7102 25.0448 30.7102H14.9552C12.3826 30.7102 10.2897 28.6174 10.2897 26.0449V15.9552C10.2897 13.3826 12.3826 11.2897 14.9552 11.2897H25.0449C27.6174 11.2897 29.7102 13.3826 29.7102 15.9552V26.0449Z" fill="#A7A7A7"/>
<path d="M20 14.9844C16.683 14.9844 13.9845 17.6828 13.9845 20.9998C13.9845 24.3168 16.683 27.0153 20 27.0153C23.317 27.0153 26.0154 24.3168 26.0154 20.9998C26.0154 17.6828 23.317 14.9844 20 14.9844ZM20 25.7255C17.3943 25.7255 15.2743 23.6056 15.2743 20.9998C15.2743 18.3942 17.3943 16.2741 20 16.2741C22.6058 16.2741 24.7257 18.3942 24.7257 20.9998C24.7257 23.6056 22.6058 25.7255 20 25.7255Z" fill="#A7A7A7"/>
<path d="M26.1593 12.8481C25.179 12.8481 24.3818 13.6456 24.3818 14.6256C24.3818 15.6059 25.179 16.4033 26.1593 16.4033C27.1395 16.4033 27.9369 15.6059 27.9369 14.6256C27.9369 13.6454 27.1395 12.8481 26.1593 12.8481ZM26.1593 15.1134C25.8904 15.1134 25.6715 14.8945 25.6715 14.6256C25.6715 14.3566 25.8904 14.1379 26.1593 14.1379C26.4283 14.1379 26.6472 14.3566 26.6472 14.6256C26.6472 14.8945 26.4283 15.1134 26.1593 15.1134Z" fill="#A7A7A7"/>
</g>
<defs>
<clipPath id="clip0_1_604">
<rect width="22" height="22" fill="white" transform="translate(9 10)"/>
</clipPath>
</defs>
</svg>
