<svg width="41" height="41" viewBox="0 0 41 41" fill="none" xmlns="http://www.w3.org/2000/svg">
<circle cx="20.5" cy="20.5" r="20.5" fill="white"/>
<g clip-path="url(#clip0_1_610)">
<path d="M33 13.2287C31.4274 13.304 31.4617 13.2979 31.284 13.3134L32.2153 10.5472C32.2153 10.5472 29.3081 11.6594 28.5711 11.8584C26.6356 10.0491 23.7585 9.96914 21.7016 11.2839C20.0172 12.3608 19.1132 14.2102 19.4147 16.3717C16.1366 15.8986 13.3745 14.2826 11.1939 11.5582L10.5042 10.6967L9.98879 11.681C9.33743 12.9248 9.12114 14.3468 9.37959 15.6852C9.48563 16.2343 9.66588 16.758 9.91555 17.2483L9.32389 17.0099L9.2537 18.038C9.18256 19.0824 9.51691 20.3015 10.1482 21.2989C10.326 21.5798 10.5549 21.8883 10.845 22.1925L10.5393 22.1438L10.9123 23.3218C11.4027 24.8697 12.4212 26.0672 13.743 26.7329C12.423 27.3155 11.3566 27.6872 9.6037 28.2869L8 28.8352L9.48125 29.6774C10.046 29.9986 12.0417 31.0711 14.0135 31.3929C18.3966 32.1078 23.3315 31.5256 26.6537 28.4138C29.4519 25.7929 30.3701 22.0646 30.1794 18.1848C30.1506 17.5974 30.3053 17.0369 30.615 16.6066C31.2355 15.7451 32.9962 13.2344 33 13.2287ZM29.4437 15.6941C28.9293 16.4084 28.6716 17.3207 28.7178 18.2626C28.9103 22.1761 27.8864 25.2111 25.6744 27.2828C23.0906 29.703 18.9228 30.653 14.2403 29.8891C13.3923 29.7508 12.5158 29.4412 11.7905 29.1319C13.2601 28.6061 14.395 28.1373 16.2277 27.2352L18.7862 25.9758L15.9615 25.7877C14.6084 25.6976 13.4817 25.0157 12.7892 23.9084C13.1569 23.8862 13.5115 23.8243 13.8645 23.7219L16.5587 22.9416L13.842 22.2497C12.5219 21.9134 11.7695 21.092 11.3707 20.462C11.1088 20.048 10.9377 19.6239 10.8351 19.233C11.1075 19.3089 11.425 19.3631 11.9371 19.4158L14.4516 19.6745L12.4594 18.0582C11.0239 16.8938 10.4487 15.1445 10.8704 13.4627C15.3503 18.2953 20.6104 17.9321 21.1399 18.0598C21.0234 16.8825 21.0203 16.8798 20.9898 16.7677C20.3117 14.2748 21.7978 13.0091 22.468 12.5806C23.868 11.6858 26.0902 11.5509 27.6295 13.0251C27.9619 13.3433 28.4115 13.4685 28.8322 13.3598C29.2099 13.2622 29.5198 13.1588 29.8233 13.0464L29.1916 14.9225L29.998 14.9231C29.8458 15.1353 29.6633 15.3894 29.4437 15.6941Z" fill="#A7A7A7"/>
</g>
<defs>
<clipPath id="clip0_1_610">
<rect width="25" height="26" fill="white" transform="translate(8 8)"/>
</clipPath>
</defs>
</svg>
