<svg width="41" height="41" viewBox="0 0 41 41" fill="none" xmlns="http://www.w3.org/2000/svg">
<circle cx="20.5" cy="20.5" r="20.5" fill="white"/>
<path d="M23.8883 20.4038L18.2633 16.8881C18.0465 16.7527 17.7733 16.7455 17.5497 16.8694C17.3261 16.9933 17.1874 17.2288 17.1874 17.4844V24.5156C17.1874 24.7712 17.3261 25.0067 17.5497 25.1306C17.656 25.1895 17.7733 25.2188 17.8906 25.2188C18.0201 25.2188 18.1494 25.183 18.2632 25.1119L23.8882 21.5963C24.0938 21.4678 24.2187 21.2424 24.2187 21C24.2187 20.7576 24.0939 20.5322 23.8883 20.4038ZM18.5937 23.247V18.753L22.189 21L18.5937 23.247Z" fill="#A7A7A7"/>
<path d="M28.4844 11.8594H11.5156C9.57711 11.8594 8 13.4365 8 15.375V26.625C8 28.5635 9.57711 30.1406 11.5156 30.1406H28.4844C30.4229 30.1406 32 28.5635 32 26.625V15.375C32 13.4365 30.4229 11.8594 28.4844 11.8594ZM30.5938 26.625C30.5938 27.7881 29.6475 28.7344 28.4844 28.7344H11.5156C10.3525 28.7344 9.40625 27.7881 9.40625 26.625V15.375C9.40625 14.2119 10.3525 13.2656 11.5156 13.2656H28.4844C29.6475 13.2656 30.5938 14.2119 30.5938 15.375V26.625Z" fill="#A7A7A7"/>
</svg>
